<svg xmlns="http://www.w3.org/2000/svg" viewBox="0 0 294.75 102.28"><defs><style>.cls-1{font-size:33.79px;fill:#101840;font-family:SFProRounded-Bold, SF Pro Rounded;font-weight:700;}.cls-2{letter-spacing:0em;}.cls-3{letter-spacing:0em;}.cls-4{letter-spacing:0em;}.cls-5{fill:#3951a3;}.cls-6{fill:#fff;}</style></defs><g id="Layer_2" data-name="Layer 2"><g id="Layer_1-2" data-name="Layer 1"><text class="cls-1" transform="translate(91.19 41.38)"><tspan class="cls-2">R<tspan class="cls-3" x="21.47" y="0">eplacement</tspan></tspan><tspan x="0" y="40.55">Wind</tspan><tspan class="cls-2" x="80.33" y="40.55">o</tspan><tspan class="cls-4" x="99.52" y="40.55">w</tspan><tspan x="126.14" y="40.55">s</tspan></text><rect class="cls-5" width="80.21" height="91.91"/><polygon class="cls-6" points="0 26.24 22.82 19.84 22.82 56.04 0 59.33 0 26.24"/><polygon class="cls-5" points="19.06 52.78 3.76 54.99 3.76 29.09 19.06 24.8 19.06 52.78"/><polygon class="cls-6" points="16.8 21.53 39.62 15.12 39.62 53.61 16.8 56.91 16.8 21.53"/><polygon class="cls-5" points="35.86 50.36 20.56 52.56 20.56 24.38 35.86 20.08 35.86 50.36"/><polygon class="cls-6" points="0 86.15 0 53.21 22.82 50.1 22.82 86.15 0 86.15"/><polygon class="cls-5" points="19.06 82.39 3.76 82.39 3.76 56.49 19.06 54.41 19.06 82.39"/><polygon class="cls-6" points="16.8 86.15 16.8 50.92 39.62 47.81 39.62 86.15 16.8 86.15"/><polygon class="cls-5" points="35.86 82.39 20.56 82.39 20.56 54.2 35.86 52.12 35.86 82.39"/><polygon class="cls-6" points="80.21 30.4 63 25.68 63 25.68 59.09 24.61 56.83 24 56.83 24 39.62 19.28 39.62 57.77 63 61.06 63 61.06 80.21 63.49 80.21 30.4"/><polygon class="cls-5" points="80.21 32 56.83 25.6 56.83 61.8 80.21 65.09 80.21 32"/><polygon class="cls-6" points="60.69 58.54 76.36 60.75 76.36 34.85 60.69 30.56 60.69 58.54"/><polygon class="cls-5" points="63 27.29 39.62 20.88 39.62 59.37 63 62.67 63 27.29"/><polygon class="cls-6" points="43.47 56.12 59.15 58.33 59.15 30.14 43.47 25.84 43.47 56.12"/><polygon class="cls-5" points="80.21 91.91 80.21 58.97 56.83 55.86 56.83 91.91 80.21 91.91"/><polygon class="cls-6" points="60.69 88.15 76.36 88.15 76.36 62.25 60.69 60.17 60.69 88.15"/><polygon class="cls-5" points="63 91.91 63 56.68 39.62 53.57 39.62 91.91 63 91.91"/><polygon class="cls-6" points="43.47 88.15 59.15 88.15 59.15 59.96 43.47 57.88 43.47 88.15"/></g></g></svg>