<svg id="image" xmlns="http://www.w3.org/2000/svg" width="587.425" height="362.111" viewBox="0 0 587.425 362.111">
  <rect id="Rectangle_3" data-name="Rectangle 3" width="73.025" height="1.043" transform="translate(84.074 90.712)" fill="#fefeff"/>
  <rect id="Rectangle_4" data-name="Rectangle 4" width="1.043" height="9.65" transform="translate(103.895 81.323)" fill="#fefeff"/>
  <rect id="Rectangle_5" data-name="Rectangle 5" width="1.043" height="9.65" transform="translate(135.713 81.323)" fill="#fefeff"/>
  <rect id="Rectangle_6" data-name="Rectangle 6" width="73.025" height="1.043" transform="translate(59.037 38.551)" fill="#fefeff"/>
  <rect id="Rectangle_7" data-name="Rectangle 7" width="1.043" height="9.65" transform="translate(111.197 39.333)" fill="#fefeff"/>
  <rect id="Rectangle_8" data-name="Rectangle 8" width="1.043" height="9.65" transform="translate(79.379 39.333)" fill="#fefeff"/>
  <rect id="Rectangle_9" data-name="Rectangle 9" width="73.025" height="1.043" transform="translate(174.833 111.576)" fill="#f2f2f2"/>
  <rect id="Rectangle_10" data-name="Rectangle 10" width="1.043" height="9.65" transform="translate(194.654 102.187)" fill="#f2f2f2"/>
  <rect id="Rectangle_11" data-name="Rectangle 11" width="1.043" height="9.65" transform="translate(226.472 102.187)" fill="#f2f2f2"/>
  <rect id="Rectangle_12" data-name="Rectangle 12" width="73.025" height="1.043" transform="translate(149.796 59.415)" fill="#fefeff"/>
  <rect id="Rectangle_13" data-name="Rectangle 13" width="1.043" height="9.65" transform="translate(201.957 60.198)" fill="#f2f2f2"/>
  <rect id="Rectangle_14" data-name="Rectangle 14" width="1.043" height="9.65" transform="translate(170.139 60.198)" fill="#fefeff"/>
  <rect id="Rectangle_15" data-name="Rectangle 15" width="73.025" height="1.043" transform="translate(146.145 288.922)" fill="#dde7f7"/>
  <rect id="Rectangle_16" data-name="Rectangle 16" width="1.043" height="9.65" transform="translate(165.966 279.533)" fill="#dde7f7"/>
  <rect id="Rectangle_17" data-name="Rectangle 17" width="1.043" height="9.65" transform="translate(197.784 279.533)" fill="#f2f2f2"/>
  <rect id="Rectangle_18" data-name="Rectangle 18" width="73.025" height="1.043" transform="translate(121.108 236.762)" fill="#dde7f7"/>
  <rect id="Rectangle_19" data-name="Rectangle 19" width="1.043" height="9.65" transform="translate(173.269 237.544)" fill="#f2f2f2"/>
  <rect id="Rectangle_20" data-name="Rectangle 20" width="1.043" height="9.65" transform="translate(141.45 237.544)" fill="#f2f2f2"/>
  <rect id="Rectangle_21" data-name="Rectangle 21" width="73.025" height="1.043" transform="translate(112.762 176.255)" fill="#dde7f7"/>
  <rect id="Rectangle_22" data-name="Rectangle 22" width="1.043" height="9.65" transform="translate(132.583 166.866)" fill="#dde7f7"/>
  <rect id="Rectangle_23" data-name="Rectangle 23" width="1.043" height="9.65" transform="translate(164.401 166.866)" fill="#dde7f7"/>
  <rect id="Rectangle_24" data-name="Rectangle 24" width="73.025" height="1.043" transform="translate(87.725 124.095)" fill="#fefeff"/>
  <rect id="Rectangle_25" data-name="Rectangle 25" width="1.043" height="9.65" transform="translate(139.886 124.877)" fill="#fefeff"/>
  <rect id="Rectangle_26" data-name="Rectangle 26" width="1.043" height="9.65" transform="translate(108.068 124.877)" fill="#fefeff"/>
  <rect id="Rectangle_27" data-name="Rectangle 27" width="73.025" height="1.043" transform="translate(60.08 255.54)" fill="#f2f2f2"/>
  <rect id="Rectangle_28" data-name="Rectangle 28" width="1.043" height="9.65" transform="translate(79.901 246.151)" fill="#f2f2f2"/>
  <rect id="Rectangle_29" data-name="Rectangle 29" width="1.043" height="9.65" transform="translate(111.719 246.151)" fill="#f2f2f2"/>
  <rect id="Rectangle_30" data-name="Rectangle 30" width="73.025" height="1.043" transform="translate(35.043 203.379)" fill="#f2f2f2"/>
  <rect id="Rectangle_31" data-name="Rectangle 31" width="1.043" height="9.65" transform="translate(87.203 204.161)" fill="#f2f2f2"/>
  <rect id="Rectangle_32" data-name="Rectangle 32" width="1.043" height="9.65" transform="translate(55.385 204.161)" fill="#f2f2f2"/>
  <rect id="Rectangle_33" data-name="Rectangle 33" width="73.025" height="1.043" transform="translate(423.64 90.712)" fill="#fefeff"/>
  <rect id="Rectangle_34" data-name="Rectangle 34" width="1.043" height="9.65" transform="translate(443.461 81.323)" fill="#f2f2f2"/>
  <rect id="Rectangle_35" data-name="Rectangle 35" width="1.043" height="9.65" transform="translate(475.279 81.323)" fill="#fefeff"/>
  <rect id="Rectangle_36" data-name="Rectangle 36" width="73.025" height="1.043" transform="translate(398.603 38.551)" fill="#fefeff"/>
  <rect id="Rectangle_37" data-name="Rectangle 37" width="1.043" height="9.65" transform="translate(450.763 39.333)" fill="#fefeff"/>
  <rect id="Rectangle_38" data-name="Rectangle 38" width="1.043" height="9.65" transform="translate(418.945 39.333)" fill="#f2f2f2"/>
  <rect id="Rectangle_39" data-name="Rectangle 39" width="73.025" height="1.043" transform="translate(514.4 111.576)" fill="#fefeff"/>
  <rect id="Rectangle_40" data-name="Rectangle 40" width="1.043" height="9.65" transform="translate(534.22 102.187)" fill="#fefeff"/>
  <rect id="Rectangle_41" data-name="Rectangle 41" width="1.043" height="9.65" transform="translate(566.038 102.187)" fill="#fefeff"/>
  <rect id="Rectangle_42" data-name="Rectangle 42" width="73.025" height="1.043" transform="translate(489.362 59.415)" fill="#fefeff"/>
  <rect id="Rectangle_43" data-name="Rectangle 43" width="1.043" height="9.65" transform="translate(541.522 60.198)" fill="#fefeff"/>
  <rect id="Rectangle_44" data-name="Rectangle 44" width="1.043" height="9.65" transform="translate(509.705 60.198)" fill="#fefeff"/>
  <rect id="Rectangle_45" data-name="Rectangle 45" width="73.025" height="1.043" transform="translate(485.711 288.922)" fill="#dde7f7"/>
  <rect id="Rectangle_46" data-name="Rectangle 46" width="1.043" height="9.65" transform="translate(505.532 279.533)" fill="#dde7f7"/>
  <rect id="Rectangle_47" data-name="Rectangle 47" width="1.043" height="9.65" transform="translate(537.349 279.533)" fill="#dde7f7"/>
  <rect id="Rectangle_48" data-name="Rectangle 48" width="73.025" height="1.043" transform="translate(460.674 236.762)" fill="#dde7f7"/>
  <rect id="Rectangle_49" data-name="Rectangle 49" width="1.043" height="9.65" transform="translate(512.835 237.544)" fill="#dde7f7"/>
  <rect id="Rectangle_50" data-name="Rectangle 50" width="1.043" height="9.65" transform="translate(481.017 237.544)" fill="#dde7f7"/>
  <rect id="Rectangle_51" data-name="Rectangle 51" width="73.025" height="1.043" transform="translate(452.328 176.255)" fill="#dde7f7"/>
  <rect id="Rectangle_52" data-name="Rectangle 52" width="1.043" height="9.65" transform="translate(472.149 166.866)" fill="#dde7f7"/>
  <rect id="Rectangle_53" data-name="Rectangle 53" width="1.043" height="9.65" transform="translate(503.967 166.866)" fill="#dde7f7"/>
  <rect id="Rectangle_54" data-name="Rectangle 54" width="73.025" height="1.043" transform="translate(427.291 124.095)" fill="#fefeff"/>
  <rect id="Rectangle_55" data-name="Rectangle 55" width="1.043" height="9.65" transform="translate(479.452 124.877)" fill="#fefeff"/>
  <rect id="Rectangle_56" data-name="Rectangle 56" width="1.043" height="9.65" transform="translate(447.634 124.877)" fill="#fefeff"/>
  <rect id="Rectangle_57" data-name="Rectangle 57" width="73.025" height="1.043" transform="translate(399.646 255.54)" fill="#dde7f7"/>
  <rect id="Rectangle_58" data-name="Rectangle 58" width="1.043" height="9.65" transform="translate(419.467 246.151)" fill="#f2f2f2"/>
  <rect id="Rectangle_59" data-name="Rectangle 59" width="1.043" height="9.65" transform="translate(451.285 246.151)" fill="#dde7f7"/>
  <rect id="Rectangle_60" data-name="Rectangle 60" width="73.025" height="1.043" transform="translate(374.609 203.379)" fill="#dde7f7"/>
  <rect id="Rectangle_61" data-name="Rectangle 61" width="1.043" height="9.65" transform="translate(426.77 204.161)" fill="#dde7f7"/>
  <rect id="Rectangle_62" data-name="Rectangle 62" width="1.043" height="9.65" transform="translate(394.952 204.161)" fill="#f2f2f2"/>
  <rect id="Rectangle_63" data-name="Rectangle 63" width="101.453" height="143.964" transform="translate(189.309)" fill="#3f3d56"/>
  <rect id="Rectangle_64" data-name="Rectangle 64" width="101.453" height="143.964" transform="translate(319.45 172.652)" fill="#3f3d56"/>
  <rect id="Rectangle_65" data-name="Rectangle 65" width="101.453" height="143.964" transform="translate(319.45)" fill="#3f3d56"/>
  <rect id="Rectangle_66" data-name="Rectangle 66" width="101.453" height="143.964" transform="translate(189.309 172.652)" fill="#3f3d56"/>
  <rect id="Rectangle_67" data-name="Rectangle 67" width="502.574" height="1.169" transform="translate(49.774 316.162)" fill="#091841"/>
  <path id="Path_3" data-name="Path 3" d="M145.5,693.889h-5.656V742.4s36.5,12,71.982,0v-48.51Z" transform="translate(-86.152 -385.619)" fill="#091841"/>
  <ellipse id="Ellipse_1" data-name="Ellipse 1" cx="35.991" cy="5.477" rx="35.991" ry="5.477" transform="translate(53.691 303.054)" fill="#3f3d56"/>
  <ellipse id="Ellipse_2" data-name="Ellipse 2" cx="35.991" cy="5.477" rx="35.991" ry="5.477" transform="translate(53.691 303.054)" fill="rgba(9,24,65,0.45)"/>
  <path id="Path_4" data-name="Path 4" d="M242.993,521.149c-9.079,33.563-40.178,54.349-40.178,54.349s-16.378-33.63-7.3-67.192,40.178-54.349,40.178-54.349S252.072,487.587,242.993,521.149Z" transform="translate(-111.474 -270.837)" fill="#091841"/>
  <path id="Path_5" data-name="Path 5" d="M128.186,521.149c9.079,33.563,41.3,54.28,41.3,54.28s15.252-33.561,6.173-67.124-40.178-54.349-40.178-54.349S119.107,487.587,128.186,521.149Z" transform="translate(-79.264 -270.837)" fill="#1e40c8"/>
  <path id="Path_6" data-name="Path 6" d="M99.173,544.833c24.914,24.253,27.957,61.535,27.957,61.535s-37.35-2.039-62.264-26.292-27.957-61.535-27.957-61.535S74.259,520.581,99.173,544.833Z" transform="translate(-36.909 -301.734)" fill="#091841"/>
  <path id="Path_7" data-name="Path 7" d="M237.832,544.833c-24.914,24.253-27.957,61.535-27.957,61.535s37.35-2.039,62.264-26.292S300.1,518.541,300.1,518.541,262.746,520.581,237.832,544.833Z" transform="translate(-119.655 -301.734)" fill="#091841"/>
  <circle id="Ellipse_3" data-name="Ellipse 3" cx="11.475" cy="11.475" r="11.475" transform="translate(78.728 171.609)" fill="#1e40c8"/>
  <circle id="Ellipse_4" data-name="Ellipse 4" cx="1.565" cy="1.565" r="1.565" transform="translate(227.908 75.633)" fill="#fff"/>
  <circle id="Ellipse_5" data-name="Ellipse 5" cx="18.256" cy="18.256" r="18.256" transform="translate(203.914 21.907)" fill="#fff"/>
  <circle id="Ellipse_6" data-name="Ellipse 6" cx="0.522" cy="0.522" r="0.522" transform="translate(250.859 64.679)" fill="#fff"/>
  <circle id="Ellipse_7" data-name="Ellipse 7" cx="0.522" cy="0.522" r="0.522" transform="translate(342.661 90.76)" fill="#fff"/>
  <circle id="Ellipse_8" data-name="Ellipse 8" cx="0.522" cy="0.522" r="0.522" transform="translate(336.924 246.72)" fill="#fff"/>
  <circle id="Ellipse_9" data-name="Ellipse 9" cx="0.522" cy="0.522" r="0.522" transform="translate(226.865 282.711)" fill="#fff"/>
  <circle id="Ellipse_10" data-name="Ellipse 10" cx="0.522" cy="0.522" r="0.522" transform="translate(380.739 109.016)" fill="#fff"/>
  <circle id="Ellipse_11" data-name="Ellipse 11" cx="0.522" cy="0.522" r="0.522" transform="translate(375.523 65.201)" fill="#fff"/>
  <circle id="Ellipse_12" data-name="Ellipse 12" cx="0.522" cy="0.522" r="0.522" transform="translate(357.788 206.035)" fill="#fff"/>
  <circle id="Ellipse_13" data-name="Ellipse 13" cx="0.522" cy="0.522" r="0.522" transform="translate(329.621 127.794)" fill="#fff"/>
  <circle id="Ellipse_14" data-name="Ellipse 14" cx="0.522" cy="0.522" r="0.522" transform="translate(333.794 54.247)" fill="#fff"/>
  <circle id="Ellipse_15" data-name="Ellipse 15" cx="0.522" cy="0.522" r="0.522" transform="translate(381.26 24.516)" fill="#fff"/>
  <circle id="Ellipse_16" data-name="Ellipse 16" cx="0.522" cy="0.522" r="0.522" transform="translate(227.908 235.766)" fill="#fff"/>
  <circle id="Ellipse_17" data-name="Ellipse 17" cx="0.522" cy="0.522" r="0.522" transform="translate(272.766 275.409)" fill="#fff"/>
  <circle id="Ellipse_18" data-name="Ellipse 18" cx="0.522" cy="0.522" r="0.522" transform="translate(215.389 196.646)" fill="#fff"/>
  <circle id="Ellipse_19" data-name="Ellipse 19" cx="0.522" cy="0.522" r="0.522" transform="translate(228.429 127.794)" fill="#fff"/>
  <path id="Path_8" data-name="Path 8" d="M438.934,222.568l61.81-26.638v7.052Z" transform="translate(-209.983 -93.732)" fill="#fff" opacity="0.1"/>
  <path id="Path_9" data-name="Path 9" d="M713.887,88.41V110.3L612.434,142.454V132.131Z" transform="translate(-292.984 -42.295)" fill="#fff" opacity="0.1"/>
  <path id="Path_10" data-name="Path 10" d="M533.883,481.934l31.536-17.375v2.415C547.784,475.513,534.5,481.652,533.883,481.934Z" transform="translate(-274.658 -275.909)" fill="#fff" opacity="0.1"/>
  <path id="Path_11" data-name="Path 11" d="M649.7,433.889h7.955q-4.139,2.136-8.309,4.241v-4.042Z" transform="translate(-329.893 -261.237)" fill="#fff" opacity="0.1"/>
  <path id="Path_12" data-name="Path 12" d="M760.289,367.889c-.24,1.382-2.06,3.343-5.091,5.738h-5.326Z" transform="translate(-377.986 -229.663)" fill="#fff" opacity="0.1"/>
  <path id="Path_13" data-name="Path 13" d="M795.544,547.249v3.682c-27.082,13.515-51.822,24.943-52.661,25.329Z" transform="translate(-374.642 -315.468)" fill="#fff" opacity="0.1"/>
  <path id="Path_14" data-name="Path 14" d="M713.419,550.613a5.417,5.417,0,0,0-3.149-4.917l.167-2.13H698.782l1.355,13.823h9.216l.123-1.564a5.419,5.419,0,0,0,3.943-5.212ZM709.541,555l.646-8.23a5.4,5.4,0,0,1-.646,8.23Z" transform="translate(-353.544 -313.705)" fill="#1e40c8"/>
  <path id="right_hand" data-name="right hand" d="M698.54,535.506s13.781,9.844,9.187,13.781-13.781-11.812-13.781-11.812Z" transform="translate(-351.231 -309.85)" fill="#ffb9b9"/>
  <path id="left_leg" data-name="left leg" d="M580.717,563.514s2.625,32.812,3.281,37.405,1.312,45.936,2.625,50.53,2.625,15.749,2.625,15.749h7.875s-.656-20.343,1.312-28.218,1.312-29.531,1.312-29.531,3.937-38.718,1.969-43.968S580.717,563.514,580.717,563.514Z" transform="translate(-297.063 -322.764)" fill="#ffb9b9"/>
  <path id="left_shoe" data-name="left shoe" d="M594.694,759.448s-3.281,1.969-3.281,3.281.656,4.594,0,5.906-5.25,6.562-2.625,7.875,14.437,0,14.437,0-.656-9.187-1.312-9.844.656-7.219.656-7.219Z" transform="translate(-300.539 -416.982)" fill="#091841"/>
  <path id="right_leg" data-name="right leg" d="M657.775,562.784s.834,32.906.663,37.543,3.517,45.82,2.694,50.526-.957,15.938-.957,15.938l-7.831.827s-1.483-20.3-4.267-27.924-4.4-29.23-4.4-29.23-7.98-38.091-6.573-43.518S657.775,562.784,657.775,562.784Z" transform="translate(-323.955 -322.838)" fill="#ffb9b9"/>
  <path id="right_shoe" data-name="right shoe" d="M670.159,758.942s3.47,1.613,3.607,2.919-.17,4.637.62,5.874,5.91,5.975,3.437,7.556-14.357,1.515-14.357,1.515-.312-9.205.272-9.927-1.41-7.11-1.41-7.11Z" transform="translate(-336.105 -416.74)" fill="#091841"/>
  <path id="pants" d="M586.612,470.085s-5.25.656-7.219,11.812-9.187,39.374-3.281,41.343,23.624,5.906,24.281,4.594,1.969-4.594,1.969-4.594-1.969,5.906.656,5.906,28.218-3.937,27.562-5.906-1.969-16.406-1.969-16.406-3.937-24.281-7.875-28.218a10.762,10.762,0,0,1-3.281-8.531Z" transform="translate(-293.77 -278.553)" fill="#091841"/>
  <path id="left_hand" data-name="left hand" d="M578.857,459.37s8.531-1.969,9.844.656-3.281,6.562-5.25,6.562-5.25-1.969-5.25-1.969Z" transform="translate(-295.859 -273.088)" fill="#ffb9b9"/>
  <circle id="head" cx="11.812" cy="11.812" r="11.812" transform="translate(301.388 106.017)" fill="#ffb9b9"/>
  <path id="neck" d="M621.084,341.864s-1.41,10.486-2.723,10.486,9.844,5.906,9.844,5.906l8.531-1.312,2.625-3.937s-4.071-6.323-4.071-11.573S621.084,341.864,621.084,341.864Z" transform="translate(-315.02 -215.942)" fill="#ffb9b9"/>
  <g id="Group_3" data-name="Group 3">
    <path id="upper_body" data-name="upper body" d="M608.062,363.2a9.62,9.62,0,0,0-2.625-1.312h-5.25c-.656,0-9.187,1.969-9.187,1.969l-5.25,29.53s9.187,15.093,2.625,26.906c0,0,1.969-1.312,11.156-.656s25.593,2.625,26.249,2.625.656-5.25,0-6.562.656-.656.656-3.937,1.969-9.187,1.969-9.187l9.187-33.468s-11.812-6.562-13.781-5.906-7.875,2.625-9.187,1.969A60.721,60.721,0,0,0,608.062,363.2Z" transform="translate(-299.47 -226.793)" fill="#d13f88"/>
    <path id="left_arm" data-name="left arm" d="M565.547,366.281l-1.969-.656s-3.937-.656-8.531,3.281-21.656,15.75-21.656,15.75-6.562,5.25-4.594,11.156,5.25,20.343,15.093,19.687c0,0,5.906,7.875,9.187,6.562s5.906-6.562,3.937-7.219-7.219-7.219-7.219-7.219l6.562-12.468h1.969l7.219-3.937Z" transform="translate(-272.049 -228.56)" fill="#d13f88"/>
    <path id="right_arm" data-name="right arm" d="M669.961,374.47l5.25.656s4.594,1.969,3.937,10.5,3.937,47.249,1.969,51.842c0,0,6.562,22.312,5.25,22.968s-9.187,4.594-8.531,1.969-7.219-21-7.219-21-9.187-9.843-5.25-23.624V406.625Z" transform="translate(-337.09 -232.811)" fill="#d13f88"/>
  </g>
  <path id="Path_15" data-name="Path 15" d="M630.249,324.377c-1.464-2.07-3.265-3.88-4.81-5.891-3.562-4.636-4.794-10.813-9.575-14.368-4.73-3.518-12.236-6.98-18.155-6.7-7.8.366-13.989,6.417-19.367,12.08l-12.328,12.982c-2.973,3.131-6.056,6.454-7.127,10.637-1.03,4.02-.025,8.338,1.861,12.034a29.289,29.289,0,0,0,8.055,9.616c4.127-5.683,9.908-13.529,9.908-13.529l1.346,19.517a57.013,57.013,0,0,0,21.87,2.26l2.182-8,2.291,7.559c8.8-1.167,17.651-4.207,23.1-11.078A23.272,23.272,0,0,0,630.249,324.377Z" transform="translate(-286.422 -195.942)" fill="#091841"/>
  <path id="Path_16" data-name="Path 16" d="M601.13,321.762a20.381,20.381,0,0,1,4.188-17.3c7.557-8.963,21.7-9.466,31.6-1.124a24.908,24.908,0,0,1,8.11,12.689,24.773,24.773,0,0,0-8.42-14.032c-9.894-8.342-24.04-7.838-31.6,1.124A20.551,20.551,0,0,0,601.13,321.762Z" transform="translate(-306.472 -195.297)" fill="#091841"/>
  <path id="Path_17" data-name="Path 17" d="M556.564,377.057a20.381,20.381,0,0,1,4.188-17.3c7.557-8.963,21.7-9.466,31.6-1.124a24.908,24.908,0,0,1,8.11,12.689,24.773,24.773,0,0,0-8.42-14.032c-9.894-8.342-24.04-7.838-31.6,1.124A20.552,20.552,0,0,0,556.564,377.057Z" transform="translate(-285.152 -221.75)" fill="#091841"/>
  <path id="Path_18" data-name="Path 18" d="M658.32,338.793a20.381,20.381,0,0,1,16.8,5.869c8.176,8.4,7.287,22.528-1.987,31.554a24.909,24.909,0,0,1-13.425,6.824,24.773,24.773,0,0,0,14.792-7c9.274-9.026,10.164-23.153,1.987-31.554A20.552,20.552,0,0,0,658.32,338.793Z" transform="translate(-334.188 -215.607)" fill="#091841"/>
  <path id="Path_19" data-name="Path 19" d="M710.975,499.221a3.06,3.06,0,0,0-3.229,1.269,4.171,4.171,0,0,0-.521,1.286,7.052,7.052,0,0,0,2.242,6.9,13.528,13.528,0,0,1,1.434,1.217,4.078,4.078,0,0,1,.79,3.671,6.183,6.183,0,0,1-2.153,3.183,1.759,1.759,0,0,0-.529.566c-.353.755.557,1.474.789,2.274" transform="translate(-357.497 -292.453)" fill="#fff" opacity="0.1"/>
</svg>
