<svg xmlns="http://www.w3.org/2000/svg" width="15.311" height="15.253" viewBox="0 0 15.311 15.253">
  <g id="phone" transform="translate(0.5 0.506)">
    <path id="Path_1" data-name="Path 1" d="M84.521,81.584a3.035,3.035,0,0,0-1.936-1.006,4.314,4.314,0,0,0-2.982.3c-.21.158-.315.484-.34,1.058,0,.076,0,.15-.005.22a9.241,9.241,0,0,1-2.945-1.839l-.376-.374a9.172,9.172,0,0,1-1.847-2.924c.071,0,.145,0,.221,0,.576-.024.9-.128,1.062-.337a4.243,4.243,0,0,0,.3-2.955,3.021,3.021,0,0,0-1.015-1.941,3.338,3.338,0,0,0-1.983-.229A3.057,3.057,0,0,0,70.9,72.3a3.5,3.5,0,0,0-.4,1.564c0,.01,0,.02,0,.029a12.047,12.047,0,0,0,3.234,8.028l.008.01.572.571s.006.01.009.013a12.345,12.345,0,0,0,8.071,3.225h0c.008,0,.016-.01.024-.011a3.555,3.555,0,0,0,1.57-.406,3.026,3.026,0,0,0,.76-1.77A3.291,3.291,0,0,0,84.521,81.584Zm-.38,1.884a2.57,2.57,0,0,1-.555,1.395,3.616,3.616,0,0,1-1.2.245,11.567,11.567,0,0,1-7.644-3.048l-.563-.56a11.428,11.428,0,0,1-3.065-7.6,3.558,3.558,0,0,1,.245-1.189,2.6,2.6,0,0,1,1.4-.553,2.655,2.655,0,0,1,1.576.147,2.435,2.435,0,0,1,.726,1.529,3.8,3.8,0,0,1-.181,2.456,2.983,2.983,0,0,1-1.17.1.312.312,0,0,0-.345.461,9.771,9.771,0,0,0,2,3.383.31.31,0,0,0,.037.048q.137.146.28.287t.289.279a.311.311,0,0,0,.048.037,9.85,9.85,0,0,0,3.4,1.984.308.308,0,0,0,.373-.046l.015-.015,0,0a.3.3,0,0,0,.069-.28,2.935,2.935,0,0,1,.1-1.16,3.87,3.87,0,0,1,2.486-.178,2.448,2.448,0,0,1,1.526.72A2.609,2.609,0,0,1,84.141,83.468Z" transform="translate(-70.499 -71.497)" fill="#1e40c8" stroke="#1e40c8" stroke-width="1"/>
  </g>
</svg>
